# xmcd
#
# Track frame offsets: 
#        182
#        16405
#        30435
#        45815
#        65070
#        75757
#        92025
#        106465
#        122147
#        135420
#        152327
#
# Disc length: 2300 seconds
#
# Revision: 2
# Processed by: cddbd v1.5.2PL0 Copyright (c) Steve Scherf et al.
# Submitted via: ExactAudioCopy v0.95b4
#
DISCID=7408fa0b
DTITLE=Craig Morgan - Craig Morgan
DYEAR=2000
DGENRE=Country
TTITLE0=Paradise
TTITLE1=I Want Us Back
TTITLE2=Something To Write Home About
TTITLE3=302 South Maple Avenue
TTITLE4=It's Me
TTITLE5=When A Man Can't Get A Woman Off His Mind
TTITLE6=Ev'rything's A Thing
TTITLE7=Walking In My Father's Shoes
TTITLE8=Hush
TTITLE9=Everywhere I Go
TTITLE10=I Wish I Could See Bakersfield
EXTD=
EXTT0=
EXTT1=
EXTT2=
EXTT3=
EXTT4=
EXTT5=
EXTT6=
EXTT7=
EXTT8=
EXTT9=
EXTT10=
PLAYORDER=
